<?xml version="1.0" encoding="UTF-8" standalone="no"?>
<svg
    width="119.06628"
    height="35.849957"
    xmlns="http://www.w3.org/2000/svg"
>
    <g>
        <path
            style="fill:#ffffff;fill-opacity:1"
            d="m 113.15439,35.566756 c -1.72316,-0.546802 -3.40596,-2.25142 -4.00599,-4.057944 -0.25284,-0.761227 -0.59615,-1.418905 -0.76291,-1.461506 -3.1011,-0.792225 -4.32238,-1.350577 -5.60276,-2.561512 -1.32806,-1.256022 -1.41118,-1.292044 -2.98121,-1.292044 -2.422345,0 -4.163555,-0.465928 -5.471105,-1.464 l -1.16064,-0.885939 -2.86249,1.605807 c -4.9907,2.799691 -5.42324,2.953951 -8.418742,3.002451 -1.95457,0.03165 -3.08667,0.195251 -4.33313,0.626199 -2.17346,0.751444 -4.89798,0.827616 -6.34021,0.177259 l -1.04878,-0.472932 -1.794778,1.358685 c -2.023078,1.531512 -2.787967,1.81215 -3.848265,1.411932 -0.591022,-0.223085 -0.943801,-0.174457 -1.797098,0.247721 -0.986155,0.487911 -1.120601,0.495921 -1.889095,0.112545 -0.787263,-0.392738 -0.874028,-0.381051 -1.789535,0.241052 -1.09055,0.741048 -2.086778,0.8343 -2.83927,0.26577 -0.321245,-0.242709 -0.820571,-0.333597 -1.333271,-0.242682 -0.626956,0.111176 -0.999751,-0.0095 -1.585547,-0.513421 L 52.523696,31.005426 51.331119,31.8681 c -3.328634,2.407833 -4.829392,2.804493 -5.824477,1.539447 -0.368229,-0.468128 -0.531523,-0.980853 -0.462393,-1.451867 l 0.106872,-0.728164 -0.813582,0.543321 c -1.350928,0.902169 -2.537938,1.335842 -3.148107,1.150158 -0.756004,-0.230063 -1.501932,-0.897701 -1.501932,-1.344294 0,-0.465457 -0.09533,-0.452968 -1.322917,0.173299 -2.095133,1.068857 -3.704167,0.401237 -3.704167,-1.536931 0,-0.55427 0.174807,-1.238879 0.388461,-1.521354 0.610465,-0.807108 0.475051,-0.96013 -0.433763,-0.490164 -1.87987,0.972119 -3.79869,0.534218 -4.092318,-0.933922 l -0.151083,-0.755417 -1.703667,1.09754 c -2.46546,1.588303 -3.307094,1.996574 -4.145336,2.010873 -0.955162,0.01629 -1.671086,-0.371844 -2.094308,-1.135425 -0.324548,-0.585552 -0.370376,-0.568235 -1.592465,-0.242552 -0.765363,0.203967 -1.558709,0.486049 -3.836458,0.685196 -2.478942,0.216737 -3.676793,-0.05114 -5.414071,-1.131089 L 10.265236,26.976091 7.834531,29.296899 C 5.730051,31.306232 1.231312,34.35554 0,34.828039 -0.354739,34.964165 0,32.994296 0,17.490807 V 0 h 59.533138 59.533142 l -2.8e-4,17.502043 v 17.433772 l -1.15009,0.419433 c -1.65494,0.603548 -3.37282,0.652152 -4.76145,0.211508 z M 51.093626,18.057812 c 1.336709,-1.127786 2.678903,-2.250737 2.982653,-2.495446 0.30375,-0.244709 0.476286,-0.520912 0.383413,-0.613785 -0.09287,-0.09287 -1.341251,0.864827 -2.774172,2.128222 -3.222606,2.841346 -3.423435,3.03153 -3.201219,3.03153 0.09842,0 1.272616,-0.922734 2.609325,-2.050521 z m 5.936025,-5.112554 C 57.113021,12.810366 57.031051,12.7 56.847481,12.7 c -0.382247,0 -2.078731,1.572016 -2.078731,1.926218 0,0.240093 1.986367,-1.236753 2.260901,-1.68096 z m 1.384394,-1.186303 c 0.323421,-0.226533 0.588038,-0.58372 0.588038,-0.79375 0,-0.529747 -0.260328,-0.478111 -0.975135,0.193415 -1.005524,0.944641 -0.725185,1.379408 0.387097,0.600335 z M 57.297867,4.8863769 c -0.588458,-0.445088 -0.941617,-0.498451 -0.941617,-0.142279 0,0.135399 0.26789,0.297779 0.595312,0.360843 0.327422,0.06306 0.654844,0.12709 0.727604,0.142279 0.07276,0.01519 -0.09882,-0.14719 -0.381299,-0.360843 z"
            id="path1"
        />
    </g>
</svg>